<svg
                        width="50"
                        height="50"
                        viewBox="0 0 60 59"
                        fill="none"
                        xmlns="http://www.w3.org/2000/svg"
                    >
                        <path
                            d="M30 5.89999C16.746 5.89999 6 16.4669 6 29.5C6 40.5586 13.744 49.8117 24.184 52.3723C24.072 52.0537 24 51.684 24 51.2258V47.1921C23.026 47.1921 21.394 47.1921 20.984 47.1921C19.342 47.1921 17.882 46.4979 17.174 45.2078C16.388 43.7741 16.252 41.5812 14.304 40.24C13.726 39.7935 14.166 39.2842 14.832 39.353C16.062 39.6952 17.082 40.5251 18.042 41.7563C18.998 42.9894 19.448 43.2686 21.234 43.2686C22.1 43.2686 23.396 43.2195 24.616 43.0307C25.272 41.3924 26.406 39.884 27.792 39.1721C19.8 38.3638 15.986 34.454 15.986 29.146C15.986 26.8607 16.976 24.6502 18.658 22.7878C18.106 20.9391 17.412 17.169 18.87 15.7333C22.466 15.7333 24.64 18.0265 25.162 18.646C26.954 18.0422 28.922 17.7 30.99 17.7C33.062 17.7 35.038 18.0422 36.834 18.6499C37.35 18.0343 39.526 15.7333 43.13 15.7333C44.594 17.171 43.892 20.9568 43.334 22.8015C45.006 24.66 45.99 26.8647 45.99 29.146C45.99 34.4501 42.182 38.3579 34.202 39.1701C36.398 40.297 38 43.4633 38 45.8489V51.2258C38 51.4303 37.954 51.5778 37.93 51.7528C47.282 48.5295 54 39.7975 54 29.5C54 16.4669 43.254 5.89999 30 5.89999Z"
                            fill="black"
                        />
                    </svg>